<?xml version="1.0" standalone="no"?>
<!DOCTYPE svg PUBLIC "-//W3C//DTD SVG 20010904//EN"
 "http://www.w3.org/TR/2001/REC-SVG-20010904/DTD/svg10.dtd">
<svg version="1.0" xmlns="http://www.w3.org/2000/svg"
 width="220.000000pt" height="220.000000pt" viewBox="0 0 220.000000 220.000000"
 preserveAspectRatio="xMidYMid meet">
<metadata>
Created by potrace 1.11, written by Peter Selinger 2001-2013
</metadata>
<g transform="translate(0.000000,220.000000) scale(0.100000,-0.100000)"
fill="#000000" stroke="none">
<path d="M518 2000 c-2 -7 -20 -12 -41 -12 -20 0 -34 -4 -31 -9 3 -5 -6 -9
-20 -9 -14 0 -26 -6 -26 -12 0 -9 -4 -8 -10 2 -6 10 -10 11 -10 3 0 -7 -9 -13
-21 -13 -11 0 -17 -4 -14 -10 5 -9 -16 -15 -38 -11 -5 1 -6 -3 -2 -9 3 -5 -1
-10 -9 -10 -9 0 -16 -4 -16 -10 0 -5 -7 -10 -15 -10 -8 0 -15 -4 -15 -10 0 -5
-5 -10 -11 -10 -15 0 -99 -92 -99 -108 0 -7 -4 -10 -10 -7 -5 3 -10 0 -10 -9
0 -8 -3 -16 -7 -18 -12 -5 -53 -84 -53 -102 0 -9 -4 -16 -10 -16 -5 0 -10 -16
-10 -36 0 -19 -4 -33 -8 -30 -5 3 -9 -16 -11 -42 -1 -25 -8 -53 -14 -61 -10
-12 -9 -13 1 -7 10 6 13 3 12 -10 -1 -11 -2 -52 -1 -92 1 -55 4 -71 14 -66 10
6 10 4 0 -7 -7 -7 -13 -18 -13 -23 0 -6 5 -4 10 4 7 11 10 4 10 -27 0 -24 5
-43 11 -43 5 0 8 -4 4 -9 -3 -5 2 -16 10 -24 11 -12 12 -17 2 -20 -9 -4 -9 -6
1 -6 6 -1 12 -8 12 -16 0 -9 9 -25 20 -37 18 -20 25 -39 21 -61 -1 -5 3 -6 9
-2 9 6 15 -16 10 -40 -1 -5 2 -7 6 -3 8 9 54 -54 54 -74 0 -9 3 -9 10 2 8 13
10 12 10 -3 0 -11 14 -32 31 -48 17 -16 28 -29 25 -29 -4 0 7 -13 23 -29 16
-16 27 -32 23 -36 -4 -4 0 -5 8 -3 8 2 14 -3 13 -9 -2 -7 3 -12 10 -10 6 1 11
-4 10 -10 -2 -7 0 -12 5 -12 19 3 33 -2 27 -11 -3 -5 1 -10 10 -10 9 0 14 -4
11 -9 -9 -14 56 -41 75 -31 9 5 18 7 21 5 2 -2 5 15 6 38 2 31 0 38 -8 27 -8
-13 -10 -12 -10 3 0 20 -43 67 -60 67 -6 0 -9 3 -7 8 2 4 -6 17 -19 29 -15 15
-24 18 -27 10 -3 -7 -6 -5 -6 5 -1 10 -19 35 -41 57 -22 22 -40 48 -40 58 0
15 -2 16 -10 3 -8 -13 -10 -12 -10 3 0 10 -9 27 -19 39 -11 11 -35 51 -54 89
-19 38 -37 67 -40 64 -4 -3 -5 -2 -2 1 2 4 -2 22 -10 41 -8 20 -15 46 -15 60
0 13 -4 22 -8 19 -10 -6 -11 9 -11 139 0 128 2 145 11 139 4 -3 8 9 8 26 0 18
4 29 10 25 6 -4 10 7 10 25 0 18 4 29 10 25 5 -3 10 3 10 15 0 12 5 18 10 15
6 -3 10 1 10 9 0 9 5 16 10 16 6 0 10 7 10 15 0 8 9 19 20 25 11 6 20 18 20
27 0 9 3 13 6 10 4 -3 15 5 26 18 11 14 26 25 34 25 8 0 14 5 14 10 0 6 9 10
20 10 11 0 20 5 20 10 0 6 9 10 20 10 11 0 20 5 20 10 0 6 9 10 20 10 11 0 20
6 20 13 0 8 4 7 10 -3 6 -10 10 -11 10 -2 0 6 12 12 28 12 15 0 34 6 41 13 11
10 13 10 7 0 -4 -7 -2 -13 3 -13 6 0 11 5 11 10 0 14 83 13 97 -1 8 -8 13 -8
17 0 4 6 13 11 19 11 7 0 6 -4 -3 -10 -12 -8 -9 -10 13 -10 15 0 35 -4 45 -9
9 -5 31 -15 47 -22 17 -8 37 -21 45 -29 8 -8 24 -20 35 -27 11 -6 19 -16 17
-23 -1 -6 1 -9 6 -6 5 3 22 -11 38 -30 16 -20 34 -41 39 -48 6 -6 16 -23 24
-38 8 -16 18 -28 23 -28 4 0 8 -12 8 -26 0 -14 4 -23 10 -19 6 3 10 -3 10 -14
0 -14 6 -21 20 -21 11 0 20 -4 20 -10 0 -5 5 -10 11 -10 5 0 7 5 4 10 -3 6 -1
10 5 10 18 0 37 23 60 74 12 25 26 46 31 46 5 0 9 6 9 14 0 16 104 126 119
126 5 0 15 8 20 18 6 9 11 13 11 9 0 -5 7 -1 16 7 8 9 20 13 26 10 7 -4 8 -2
4 4 -4 7 -1 12 8 12 9 0 16 6 16 13 0 8 4 7 10 -3 6 -10 10 -11 10 -2 0 7 14
12 34 12 19 0 37 4 40 8 3 5 28 9 56 11 29 1 49 -2 46 -7 -3 -5 1 -9 9 -9 8 0
12 4 9 9 -3 4 0 8 5 8 6 0 11 -4 11 -10 0 -5 14 -10 31 -10 19 0 28 -4 23 -11
-4 -7 1 -7 16 1 15 8 20 8 16 1 -5 -7 3 -11 19 -11 15 0 24 -4 20 -10 -3 -5 2
-10 13 -10 10 0 28 -9 40 -20 12 -12 22 -16 22 -10 0 6 33 -22 73 -62 41 -40
72 -76 70 -80 -2 -3 4 -13 12 -21 8 -9 15 -23 15 -31 0 -9 5 -16 10 -16 6 0
10 -11 10 -24 0 -14 5 -28 10 -31 6 -3 10 -17 10 -31 0 -18 4 -23 13 -18 9 6
9 4 -1 -8 -10 -12 -10 -18 -1 -23 8 -6 7 -10 -2 -16 -9 -5 -9 -9 -3 -9 15 0
16 -98 2 -124 -7 -14 -7 -17 2 -11 9 6 9 3 1 -13 -6 -11 -11 -38 -11 -59 0
-28 -3 -34 -10 -23 -7 11 -10 7 -10 -17 0 -18 -4 -33 -8 -33 -4 0 -9 -11 -10
-25 -1 -14 -11 -35 -22 -47 -18 -20 -25 -39 -21 -61 1 -5 -3 -6 -9 -2 -5 3
-10 -1 -10 -9 0 -9 -4 -16 -10 -16 -5 0 -10 -10 -10 -22 0 -19 -2 -20 -10 -8
-8 12 -10 11 -10 -5 0 -11 -9 -27 -20 -35 -11 -8 -20 -24 -20 -35 0 -16 -2
-17 -10 -5 -8 12 -10 10 -10 -8 0 -13 -4 -20 -10 -17 -5 3 -10 2 -10 -4 0 -12
-108 -121 -120 -121 -4 0 -11 -7 -14 -16 -3 -8 -11 -12 -17 -8 -8 4 -9 3 -5
-4 4 -7 2 -12 -4 -12 -6 0 -8 -5 -4 -12 4 -6 3 -8 -4 -4 -5 3 -29 -12 -52 -34
-23 -22 -47 -37 -52 -34 -7 4 -8 2 -4 -4 4 -7 2 -12 -4 -12 -6 0 -22 -11 -36
-25 -14 -14 -30 -22 -36 -19 -7 4 -8 2 -4 -4 4 -7 1 -12 -8 -12 -9 0 -16 -4
-16 -10 0 -5 -6 -10 -13 -10 -7 0 -23 -9 -35 -20 -12 -11 -26 -20 -32 -20 -6
0 -8 -4 -5 -10 3 -5 -3 -10 -14 -10 -12 0 -21 -4 -21 -10 0 -5 -8 -10 -18 -10
-10 0 -24 -9 -32 -19 -7 -11 -17 -18 -21 -16 -3 3 -17 -4 -29 -15 -12 -11 -27
-17 -31 -14 -5 3 -9 0 -9 -5 0 -6 -7 -11 -16 -11 -8 0 -13 -4 -10 -8 2 -4 -4
-9 -15 -9 -10 -1 -33 -12 -50 -24 -23 -16 -33 -19 -42 -10 -6 6 -19 11 -30 11
-10 0 -15 5 -12 10 3 6 -3 10 -14 10 -12 0 -21 5 -21 10 0 6 -8 10 -17 10 -10
0 -34 14 -53 30 -19 16 -40 30 -45 30 -6 0 -17 9 -25 19 -7 11 -17 18 -22 15
-4 -3 -8 3 -9 13 0 10 -3 13 -6 6 -5 -14 -53 28 -53 47 0 6 -4 9 -8 6 -5 -3
-10 24 -11 60 -1 44 1 64 8 59 7 -3 11 3 11 14 0 12 5 21 10 21 6 0 10 10 10
23 0 18 2 19 10 7 9 -13 10 -13 11 0 1 8 1 19 0 23 -1 4 7 3 18 -3 25 -13 298
-13 306 0 3 6 12 10 18 10 7 0 6 -4 -3 -10 -9 -6 -10 -10 -3 -10 6 0 15 5 18
10 3 6 19 10 35 10 16 0 32 5 35 10 3 6 15 10 26 10 10 0 19 5 19 10 0 6 6 10
13 10 7 0 19 9 27 19 7 11 17 18 22 15 4 -3 8 1 8 8 0 8 9 20 20 28 11 8 20
22 20 32 0 10 5 18 10 18 6 0 10 7 10 16 0 9 5 12 13 8 6 -4 9 -4 5 1 -4 4 1
24 11 44 10 20 17 44 16 54 -2 9 1 15 6 11 5 -3 10 6 10 20 2 33 3 39 10 51 3
6 7 30 8 55 1 25 6 49 12 54 5 6 9 19 9 31 0 12 5 26 11 32 5 5 9 34 7 64 l-3
54 -58 3 c-35 2 -64 -2 -73 -9 -11 -9 -14 -8 -14 2 0 11 -2 11 -10 -1 -9 -13
-10 -13 -10 0 0 11 -2 12 -8 3 -6 -9 -39 -13 -100 -14 -67 -1 -90 -4 -85 -12
4 -7 0 -7 -9 1 -11 9 -18 10 -23 2 -3 -5 -19 -10 -35 -10 -15 0 -30 -4 -32
-10 -1 -5 -15 -11 -30 -12 -15 -1 -24 -6 -22 -10 5 -7 -19 -12 -39 -9 -5 1 -6
-3 -2 -9 3 -5 -1 -10 -10 -10 -9 0 -13 -4 -10 -10 3 -5 1 -10 -5 -10 -30 0
-120 -120 -120 -160 0 -11 -4 -20 -10 -20 -5 0 -10 -19 -10 -42 0 -32 -3 -39
-10 -28 -5 8 -10 10 -10 5 0 -6 5 -16 12 -23 7 -7 8 -12 2 -12 -10 0 -15 -34
-17 -117 -1 -23 -5 -39 -9 -37 -4 3 -8 -1 -8 -8 0 -8 -9 -20 -20 -28 -11 -8
-20 -20 -20 -28 0 -7 -5 -10 -12 -6 -6 4 -8 3 -5 -3 4 -6 -5 -23 -18 -39 -14
-16 -25 -39 -25 -51 0 -12 -5 -23 -10 -25 -10 -3 -16 -105 -8 -138 1 -8 11
-22 21 -31 9 -9 17 -24 17 -33 0 -10 5 -14 10 -11 6 3 10 2 10 -4 0 -10 44
-58 58 -63 4 -2 6 -6 4 -11 -1 -4 1 -6 5 -6 20 3 34 -2 28 -11 -3 -5 1 -10 9
-10 9 0 16 -4 16 -10 0 -5 9 -10 20 -10 11 0 20 -4 20 -10 0 -5 7 -10 16 -10
8 0 12 -5 9 -10 -4 -6 -3 -10 2 -9 22 4 41 -3 61 -21 12 -11 28 -20 37 -20 8
0 15 -4 15 -10 0 -5 9 -10 21 -10 11 0 17 -4 14 -10 -4 -6 12 -10 39 -10 26 0
46 5 46 11 0 5 4 8 9 4 5 -3 16 2 24 10 9 8 23 15 32 15 9 0 13 5 10 10 -3 6
2 10 12 10 10 0 27 7 37 15 10 8 23 12 29 8 6 -3 7 -1 3 5 -4 7 -1 12 8 12 9
0 16 5 16 10 0 6 9 10 20 10 11 0 20 5 20 10 0 6 7 10 15 10 8 0 15 5 15 10 0
6 7 10 15 10 8 0 15 4 15 8 0 5 16 14 35 22 19 7 32 17 29 22 -3 4 3 8 13 8
10 0 25 9 33 20 10 14 16 16 22 7 5 -8 8 -6 8 6 0 10 4 16 8 13 5 -3 15 4 22
15 8 10 20 19 27 19 7 0 13 5 13 10 0 6 6 10 13 10 7 0 19 9 27 20 8 11 20 20
28 20 7 0 17 10 22 22 5 13 9 17 9 10 1 -10 4 -10 15 0 8 7 12 16 9 21 -2 4 1
7 7 7 6 0 33 23 60 50 27 28 54 50 61 50 7 0 10 3 7 6 -3 3 21 33 53 67 32 33
59 65 59 69 0 5 14 22 30 40 17 17 30 37 30 44 0 8 5 14 11 14 5 0 8 4 4 9 -3
5 2 16 10 24 8 9 15 23 15 31 0 9 5 16 10 16 6 0 10 9 10 20 0 11 5 20 10 20
6 0 10 9 10 19 0 11 5 23 10 26 6 3 10 20 10 36 0 22 4 28 13 23 7 -5 6 0 -3
11 -9 11 -10 16 -2 11 9 -5 12 4 12 33 0 26 5 41 13 41 8 0 7 4 -3 10 -8 5
-10 10 -5 10 6 0 12 11 13 26 1 18 -2 23 -11 18 -9 -6 -9 -5 0 7 16 19 15 101
-1 92 -8 -5 -8 -3 0 8 13 16 15 51 2 43 -4 -3 -8 11 -8 30 0 19 -5 38 -11 41
-6 4 -8 13 -5 21 3 7 -1 20 -9 28 -9 8 -16 26 -17 40 -1 13 -6 22 -10 20 -4
-3 -8 2 -8 10 0 9 -4 16 -10 16 -5 0 -10 6 -10 13 0 7 -9 23 -19 34 -11 12
-17 24 -14 27 4 3 -1 6 -10 6 -9 0 -17 7 -17 15 0 9 -8 19 -17 22 -10 4 -35
24 -55 45 -20 21 -40 39 -43 38 -20 -1 -25 1 -20 10 3 6 -3 10 -14 10 -11 0
-23 5 -26 10 -3 6 -15 10 -26 10 -10 0 -19 5 -19 10 0 6 -14 10 -31 10 -16 0
-28 4 -25 8 2 4 -10 9 -27 10 -17 2 -35 8 -39 15 -6 9 -8 8 -8 -3 0 -13 -1
-13 -10 0 -9 13 -10 13 -10 0 0 -12 -2 -12 -9 -2 -9 15 -158 14 -167 0 -3 -4
-17 -8 -32 -8 -15 0 -36 -7 -46 -15 -10 -8 -23 -12 -29 -8 -6 3 -7 1 -3 -5 4
-7 1 -12 -7 -12 -21 0 -68 -26 -60 -33 3 -4 -1 -7 -11 -7 -10 0 -14 -5 -10
-12 4 -6 3 -8 -4 -4 -6 3 -37 -20 -69 -51 -60 -59 -63 -63 -63 -85 0 -9 -4 -8
-10 2 -8 13 -10 12 -10 -3 0 -20 -23 -47 -40 -47 -6 0 -14 8 -17 18 -4 9 -14
24 -22 32 -9 8 -21 24 -28 35 -6 11 -16 19 -23 17 -6 -1 -9 2 -6 7 4 5 -3 16
-14 24 -11 7 -17 17 -12 22 4 5 1 5 -6 1 -7 -4 -15 -1 -18 8 -3 9 -11 16 -18
16 -6 0 -18 9 -26 20 -8 11 -22 20 -32 20 -10 0 -18 5 -18 10 0 6 -9 10 -21
10 -11 0 -17 5 -14 10 4 6 -5 10 -19 10 -14 0 -26 5 -26 10 0 6 -13 10 -29 10
-17 0 -33 5 -36 10 -3 6 -40 10 -81 10 -58 0 -73 -3 -68 -12 5 -9 2 -9 -9 1
-14 11 -17 11 -17 0 0 -12 -2 -12 -9 0 -6 10 -10 10 -13 1z m647 -720 c-3 -5
-2 -10 4 -10 5 0 13 5 16 10 3 6 26 10 51 10 24 0 44 -4 44 -10 0 -5 -9 -10
-21 -10 -11 0 -17 -4 -14 -10 3 -5 -1 -10 -9 -10 -9 0 -16 -4 -16 -10 0 -5 -9
-10 -21 -10 -11 0 -17 -4 -14 -10 3 -5 -1 -10 -9 -10 -9 0 -16 -4 -16 -10 0
-5 -6 -10 -14 -10 -7 0 -32 -18 -54 -39 -22 -22 -43 -37 -46 -34 -3 4 -6 -1
-6 -10 0 -10 -7 -17 -15 -17 -9 0 -18 -7 -21 -15 -4 -8 -10 -12 -15 -9 -5 3
-8 0 -7 -8 2 -7 -3 -12 -10 -10 -8 1 -11 -2 -8 -7 4 -5 -3 -16 -14 -24 -11 -7
-17 -17 -12 -21 4 -4 0 -6 -8 -4 -9 2 -14 -3 -12 -12 2 -8 0 -11 -4 -7 -12 11
-14 37 -3 37 5 0 9 10 9 21 0 32 22 99 32 99 5 0 6 4 3 10 -7 11 72 90 91 90
8 0 14 4 14 9 0 8 24 18 65 27 11 3 24 9 29 14 13 13 19 13 11 0z m235 -90 c0
-25 -5 -40 -12 -40 -9 0 -8 -4 2 -10 10 -6 11 -10 3 -10 -8 0 -13 -13 -13 -29
0 -17 -4 -33 -10 -36 -5 -3 -10 -17 -10 -31 0 -13 -4 -24 -10 -24 -5 0 -10 -7
-10 -16 0 -8 -7 -22 -15 -31 -8 -8 -12 -19 -9 -25 4 -7 2 -8 -4 -4 -7 4 -12 1
-12 -8 0 -9 -8 -16 -17 -16 -9 0 -14 -3 -10 -6 9 -9 -19 -34 -37 -34 -9 0 -16
-4 -16 -8 0 -4 -12 -9 -27 -10 -15 -1 -30 -8 -35 -15 -6 -9 -8 -9 -8 2 0 11
-3 11 -17 0 -15 -12 -16 -12 -8 1 6 12 5 13 -6 3 -8 -9 -45 -13 -106 -13 -80
0 -93 2 -93 17 0 9 3 14 6 10 8 -7 53 36 47 46 -2 4 1 7 7 7 15 0 41 26 33 34
-4 3 -1 6 6 6 16 0 42 26 34 34 -4 3 -1 6 6 6 7 0 26 14 41 30 15 17 33 30 40
30 6 0 9 4 6 8 -3 5 7 15 22 23 15 8 34 22 43 31 9 10 21 18 28 18 6 0 11 5
11 10 0 6 5 10 10 10 6 0 20 9 32 20 12 11 28 20 35 20 7 0 13 5 13 10 0 6 9
10 20 10 11 0 20 5 20 10 0 6 5 10 10 10 6 0 10 -18 10 -40z"/>
</g>
</svg>
